<?xml version="1.0" encoding="UTF-8" standalone="yes"?>
<svg version="1.2" viewBox="0 0 500 500" preserveAspectRatio="xMidYMid meet" baseProfile="tiny-ps" xml:space="preserve" xmlns="http://www.w3.org/2000/svg">
  <title>bimi-svg-tiny-12-ps</title>
  <path d="M0 0 C1.22592361 -0.00426498 2.45184723 -0.00852997 3.71492004 -0.01292419 C5.08680728 -0.01257458 6.4586945 -0.01211299 7.83058167 -0.0115509 C9.26635832 -0.01454145 10.70213416 -0.01794373 12.13790894 -0.02172852 C16.05683012 -0.03060223 19.9757295 -0.03290856 23.89465976 -0.0335443 C26.35307526 -0.03425507 28.81148524 -0.03639033 31.26989937 -0.03904152 C39.87802099 -0.04831923 48.48612709 -0.05237503 57.09425354 -0.05158997 C65.05937192 -0.05099456 73.02442138 -0.06143308 80.9895224 -0.07733363 C87.85953438 -0.09054803 94.72952433 -0.09576784 101.59954888 -0.09513456 C105.68716312 -0.09488279 109.77471668 -0.09754954 113.86231804 -0.10831261 C128.88072948 -0.14497221 143.85411855 -0.1177452 158.84083557 1.00749207 C159.84816207 1.08297429 160.85548857 1.15845652 161.89334011 1.23622608 C189.84870165 3.6423163 215.29068562 13.51828668 236.36012268 32.13371277 C237.06266174 32.70476746 237.76520081 33.27582214 238.48902893 33.86418152 C258.92124473 50.69776831 273.54867678 79.90420049 276.36012268 106.13371277 C279.52032983 140.44778897 272.33537764 172.645644 250.31715393 199.83293152 C234.65266936 218.24886249 217.87575018 231.11653185 195.36012268 240.13371277 C193.02175582 241.12239477 190.69091815 242.12723291 188.36012268 243.13371277 C189.08715393 244.09148621 189.81418518 245.04925964 190.56324768 246.03605652 C196.44130572 253.8095932 202.19320528 261.65285299 207.78688049 269.63346863 C211.4333611 274.83318927 215.13220674 279.99210371 218.86012268 285.13371277 C223.06716496 290.93924372 227.23607738 296.76893277 231.36012268 302.63371277 C237.61445145 311.52447849 243.98127798 320.33204278 250.36012268 329.13371277 C273.68391823 361.31639802 273.68391823 361.31639802 281.36012268 373.13371277 C279.74652792 374.74730753 278.00566244 374.25913631 275.77330017 374.25955391 C274.77567469 374.26216166 273.7780492 374.2647694 272.75019264 374.26745617 C271.08636827 374.26411009 271.08636827 374.26411009 269.38893127 374.26069641 C268.22088644 374.2622564 267.05284161 374.26381639 265.84940147 374.26542366 C262.59272875 374.26873687 259.33609289 374.26752451 256.07942104 374.26443744 C252.57290888 374.26218516 249.0664019 374.26566208 245.55989075 374.26841736 C238.68488965 374.27287591 231.80989943 374.27189821 224.9348979 374.26900472 C219.34997436 374.26675102 213.76505387 374.26643802 208.18013 374.26752853 C207.3868009 374.26768177 206.5934718 374.267835 205.77610242 374.26799288 C204.16472769 374.26831259 202.55335295 374.2686368 200.94197822 374.26896547 C185.81394128 374.27182051 170.68591039 374.26853286 155.55787444 374.2631651 C142.5629177 374.25869704 129.56796989 374.25947297 116.57301331 374.26408386 C101.50099605 374.2694292 86.42898409 374.27154582 71.35696602 374.2684716 C69.75134913 374.26815303 68.14573224 374.26783866 66.54011536 374.26752853 C65.75001552 374.26737426 64.95991568 374.26721998 64.14587343 374.26706103 C58.5643548 374.26619575 52.98283952 374.26765898 47.40132141 374.27000809 C40.60406017 374.27280584 33.80681048 374.27206836 27.00955057 374.26672734 C23.53810648 374.26408999 20.0666817 374.26308583 16.59523773 374.2663765 C12.84057689 374.26908466 9.08597135 374.26571097 5.33131409 374.26069641 C4.22209784 374.26292713 3.11288158 374.26515785 1.97005272 374.26745617 C0.97242723 374.26484843 -0.02519825 374.26224068 -1.05305481 374.25955391 C-1.92093313 374.25939156 -2.78881145 374.2592292 -3.68298912 374.25906193 C-5.63987732 374.13371277 -5.63987732 374.13371277 -6.63987732 373.13371277 C-6.73855558 371.15909304 -6.76543418 369.1808802 -6.76571846 367.20379639 C-6.76832621 365.90659888 -6.77093395 364.60940138 -6.77362072 363.27289486 C-6.77145819 361.8144727 -6.76920152 360.35605067 -6.76686096 358.89762878 C-6.76801179 357.36305231 -6.76959905 355.82847611 -6.77158821 354.29390049 C-6.77578681 350.05669759 -6.77368846 345.81951703 -6.77060199 341.58231401 C-6.76835025 337.02057775 -6.77182636 332.45884547 -6.77458191 327.89710999 C-6.77904104 318.95265145 -6.77806251 310.00820127 -6.77516927 301.0637424 C-6.77291579 293.79785007 -6.77260247 286.53196009 -6.77369308 279.2660675 C-6.77384632 278.23405734 -6.77399955 277.20204717 -6.77415743 276.13876396 C-6.77447714 274.04260723 -6.77480135 271.94645049 -6.77513002 269.85029376 C-6.77798523 250.16983674 -6.77469714 230.48938438 -6.76932965 210.80892813 C-6.76486158 193.90253891 -6.7656375 176.99615655 -6.77024841 160.08976746 C-6.77559345 140.48230724 -6.77771054 120.8748511 -6.77463615 101.26739025 C-6.77431758 99.17871285 -6.77400321 97.09003544 -6.77369308 95.00135803 C-6.77353881 93.97354471 -6.77338453 92.94573139 -6.77322558 91.88677222 C-6.77236022 84.62510077 -6.77382373 77.36343191 -6.77617264 70.10176086 C-6.77897006 61.25868348 -6.77823361 52.41561498 -6.77289189 43.57253861 C-6.77025409 39.05605852 -6.76925114 34.53959326 -6.77254105 30.02311325 C-6.7755024 25.89541372 -6.77391392 21.7677429 -6.76856349 17.640046 C-6.76743861 16.14006831 -6.76803204 14.64008823 -6.77043928 13.14011204 C-6.77344266 11.11461936 -6.76979029 9.08911997 -6.76571846 7.06362915 C-6.76555611 5.93450324 -6.76539376 4.80537733 -6.76522648 3.64203548 C-6.53262584 -1.01246291 -4.0999787 0.00641267 0 0 Z M31.36012268 23.13371277 C32.56259673 26.22645416 33.67464455 28.83654673 35.72340393 31.45402527 C36.19133362 32.06181824 36.65926331 32.66961121 37.14137268 33.29582214 C37.64668518 33.94357605 38.15199768 34.59132996 38.67262268 35.25871277 C43.26880128 41.25834737 47.63453968 47.36792966 51.86012268 53.63371277 C56.37024783 60.30622668 61.04078097 66.80830878 65.9131012 73.22013855 C69.99716201 78.60785143 73.91009932 84.10220552 77.79005432 89.6381073 C81.435587 94.83620245 85.13330695 99.99362114 88.86012268 105.13371277 C93.06716496 110.93924372 97.23607738 116.76893277 101.36012268 122.63371277 C107.61445145 131.52447849 113.98127798 140.33204278 120.36012268 149.13371277 C127.24122195 158.62840464 134.09072967 168.14136265 140.83644104 177.73283386 C145.05299386 183.7196316 149.33353494 189.6587269 153.62770081 195.5900116 C158.56932677 202.41611796 163.46933286 209.27110804 168.36012268 216.13371277 C170.02629149 218.46740216 171.69317813 220.80057735 173.36012268 223.13371277 C182.49140643 220.92791008 190.95390692 218.43749389 199.36012268 214.13371277 C200.26246643 213.69285339 201.16481018 213.25199402 202.09449768 212.79777527 C224.10861001 201.54197207 241.81335868 180.3689677 249.59571838 156.91764832 C253.03679585 145.97163213 254.73506419 135.43455914 254.67262268 123.94621277 C254.66416321 122.30374573 254.66416321 122.30374573 254.65553284 120.62809753 C254.26423995 94.32817903 244.24920114 70.58377261 226.11012268 51.44621277 C198.1286812 24.67504125 160.25413747 22.61078505 123.54762268 22.84074402 C120.86906694 22.84635687 118.19053553 22.85076707 115.51197815 22.85360718 C109.25469789 22.8628111 102.99758104 22.88726088 96.7403717 22.91765565 C89.59849913 22.95157031 82.45661739 22.96777729 75.31468391 22.98274195 C60.66308118 23.0138258 46.01160483 23.0663506 31.36012268 23.13371277 Z M15.36012268 39.13371277 C15.36012268 100.51371277 15.36012268 161.89371277 15.36012268 225.13371277 C59.58012268 225.13371277 103.80012268 225.13371277 149.36012268 225.13371277 C145.4092593 219.20741769 141.42772159 213.38046472 137.23512268 207.63371277 C132.90027436 201.66335402 128.60248813 195.67013794 124.36012268 189.63371277 C118.10605245 180.74276902 111.73896405 171.93537816 105.36012268 163.13371277 C98.47747809 153.63688864 91.62590328 144.12214767 84.87940979 134.52799988 C81.24551582 129.36781082 77.56334194 124.24433128 73.86012268 119.13371277 C69.65326344 113.32804717 65.48416996 107.49849558 61.36012268 101.63371277 C55.10579392 92.74294705 48.73896738 83.93538276 42.36012268 75.13371277 C40.17144636 72.11372913 37.98392502 69.09291549 35.79762268 66.07121277 C35.2668512 65.33854187 34.73607971 64.60587097 34.18922424 63.85099792 C31.41131086 60.00745598 28.66083689 56.14715365 25.94606018 52.25871277 C25.39635559 51.47246521 24.846651 50.68621765 24.2802887 49.87614441 C23.22995315 48.37026469 22.18339424 46.86174184 21.14112854 45.3502655 C18.77454508 41.68369702 18.77454508 41.68369702 15.36012268 39.13371277 Z M156.49598217 246.14933014 C155.43868562 246.15670448 154.38138906 246.16407883 153.29205322 246.17167664 C152.07354172 246.18009079 150.85503021 246.18850494 149.59959412 246.19717407 C148.25764463 246.20661604 146.91569517 246.21606134 145.57374573 246.22550964 C144.15430715 246.23537665 142.73486847 246.24522836 141.31542969 246.25506592 C137.46873992 246.28176909 133.62205168 246.30868621 129.77536368 246.33564186 C125.75282104 246.36379339 121.73027703 246.39174799 117.70773315 246.41972351 C110.09346572 246.47270824 102.47919954 246.52586998 94.86493379 246.57909536 C84.57365688 246.65102341 74.28237807 246.72267791 63.99109936 246.79434776 C47.78077223 246.90724587 31.57044768 247.02050935 15.36012268 247.13371277 C15.36012268 281.78371277 15.36012268 316.43371277 15.36012268 352.13371277 C88.95012268 352.13371277 162.54012268 352.13371277 238.36012268 352.13371277 C237.46135216 347.63986017 237.11973723 346.3586129 234.55152893 342.98136902 C233.9745929 342.21236267 233.39765686 341.44335632 232.80323792 340.65104675 C232.18263489 339.84095154 231.56203186 339.03085632 230.92262268 338.19621277 C229.63274775 336.48067748 228.34368946 334.76452789 227.05543518 333.04777527 C226.4215387 332.20762878 225.78764221 331.3674823 225.13453674 330.50187683 C222.80525068 327.39317089 220.54169162 324.24171923 218.29762268 321.07121277 C214.51115162 315.73969194 210.69297894 310.43199126 206.86012268 305.13371277 C203.01113176 299.81142389 199.17198795 294.48265826 195.36012268 289.13371277 C191.06802007 283.11234852 186.7558525 277.10551611 182.40504456 271.12638855 C179.48905263 267.11389436 176.62160833 263.07667892 173.81715393 258.98527527 C173.23812317 258.15221863 172.65909241 257.31916199 172.06251526 256.46086121 C170.94852885 254.85626067 169.84750429 253.24256393 168.76124573 251.61906433 C168.25762512 250.89944519 167.75400452 250.17982605 167.23512268 249.43840027 C166.79941956 248.79886414 166.36371643 248.159328 165.91481018 247.50041199 C163.28597621 245.18944896 159.87339663 246.13091403 156.49598217 246.14933014 Z " fill="#060606" transform="translate(123.63987731933594,58.86628723144531)"/>
</svg>